<?xml version="1.0" encoding="utf-8"?>
<!-- Generator: Adobe Illustrator 25.1.0, SVG Export Plug-In . SVG Version: 6.00 Build 0)  -->
<svg version="1.1" id="Capa_1" xmlns="http://www.w3.org/2000/svg" xmlns:xlink="http://www.w3.org/1999/xlink" x="0px" y="0px"
	 viewBox="0 0 128 128" style="enable-background:new 0 0 128 128;" xml:space="preserve">
<style type="text/css">
	.st0{fill:#FFFFFF;}
</style>
<g>
	<path class="st0" d="M87.3,12c10.7,0.6,19.6,5.8,24.6,16.6c5,10.9,3.3,21.4-4.5,30.4c-5,5.8-10.6,11-16,16.4
		c-12,12.1-23.9,24.4-36.1,36.4c-6.5,6.5-15.6,8-23.6,4.4c-8-3.6-13-11.8-12.4-20.6c0.3-5.2,2.3-9.7,6-13.4
		c12.3-12.3,24.6-24.6,37-36.7c5.8-5.7,14.2-5.8,19.5-0.6c5.4,5.3,5.4,13.7-0.5,19.8C69.9,75.9,58.6,87.1,47.4,98.3
		c-1.8,1.8-3.9,3.1-6,0.8c-2-2.2-0.7-4,1-5.7C53,82.8,63.6,72.1,74.2,61.5c1-1,2.2-2.1,2.9-3.3c1.8-2.9,2-6-0.7-8.4
		c-2.5-2.3-5.4-2.1-8.1-0.4c-1,0.6-1.8,1.5-2.6,2.3C54.3,63,42.9,74.3,31.6,85.7c-6.7,6.7-7.1,15.2-1.2,21.1
		c5.9,5.9,14.5,5.5,21.1-1.1c16.6-16.7,33.2-33.4,49.6-50.3c6.7-6.9,8.2-15.9,4.4-24c-3.7-7.9-12-12.8-20.8-12.2
		c-5.9,0.4-10.5,3.2-14.7,7.3C55,41.6,39.8,56.6,24.7,71.6c-1,1-2,2.5-3.2,2.9c-1.4,0.5-3.8,0.6-4.6-0.2c-0.8-0.8-0.4-3-0.2-4.6
		c0.1-0.7,1.1-1.3,1.8-1.9c15.7-15.6,31.3-31.1,47-46.7C71.2,15.4,78.1,12.1,87.3,12z"/>
</g>
</svg>
