<?xml version="1.0" encoding="utf-8"?>
<!-- Generator: Adobe Illustrator 25.1.0, SVG Export Plug-In . SVG Version: 6.00 Build 0)  -->
<svg version="1.1" id="Capa_1" xmlns="http://www.w3.org/2000/svg" xmlns:xlink="http://www.w3.org/1999/xlink" x="0px" y="0px"
	 viewBox="0 0 128 128" style="enable-background:new 0 0 128 128;" xml:space="preserve">
<style type="text/css">
	.st0{fill:#FFFFFF;}
</style>
<g>
	<path class="st0" d="M122.9,23.7c-0.3,1.1-0.4,2.3-1,3.2c-0.9,1.7-1.9,3.4-3.2,4.8c-17,17.1-34,34-51,51c-0.6,0.6-1.5,1.1-2.3,1.3
		c-7.8,2.2-15.6,4.4-23.4,6.5c-3,0.8-4.8-1-4-4c2.1-7.8,4.3-15.6,6.5-23.4c0.2-0.8,0.7-1.7,1.3-2.3c17-17.1,34-34.1,51.1-51.1
		c5.5-5.5,13.5-5.5,19,0c1,1,1.9,1.9,2.9,2.9c2.1,2.1,3.4,4.5,3.9,7.4c0,0.1,0.1,0.3,0.2,0.4C122.9,21.6,122.9,22.6,122.9,23.7z
		 M65.5,76.6c14-14,28.1-28.1,42.1-42.1c-4.5-4.5-9-9-13.4-13.4C80.1,35.1,66,49.2,52,63.2C56.5,67.6,61,72.1,65.5,76.6z M98.6,16.4
		c4.6,4.6,9.1,9.1,13.7,13.7c1-1,2.2-2.2,3.3-3.5c2.1-2.5,2.1-6.3,0-8.8c-1.5-1.7-3.1-3.3-4.8-4.8c-2.4-2.1-6.3-2-8.7,0.1
		C100.8,14.1,99.6,15.4,98.6,16.4z M44.9,83.8c5.1-1.4,10-2.8,14.8-4.1C56.1,76.1,52.5,72.5,49,69C47.6,73.8,46.3,78.7,44.9,83.8z"
		/>
	<path class="st0" d="M119.1,81.7c0-0.2,0-0.4,0-0.6c0-0.5,0.1-1,0-1.5c-0.1-1.9-1.9-3.5-3.8-3.5c-2.2,0-3.9,1.8-3.9,4.2v24.5
		c0,0.9,0,1.8-0.3,2.7c-1,3.6-3.9,5.7-8,5.7H23.5c-0.8,0-1.7-0.2-2.5-0.4c-3.7-1-5.7-3.8-5.7-8.1V31.1c0-0.9,0.1-1.8,0.3-2.5
		c1-3.8,3.9-5.9,7.9-5.9h24.8c2.3,0,4.1-1.7,4.1-3.9c-0.1-2.2-1.9-3.8-4.1-3.8c-2.2,0-4.4,0-6.6,0c-6.4,0-13,0-19.5,0.1
		c-8.3,0.2-14.8,6.9-14.8,15.3c-0.1,25-0.1,50.3,0,75.2c0,2,0.5,4.3,1.4,6.3c2.8,6,7.8,9.1,14.5,9.1h56c2.1,0,4.2,0,6.3,0
		c2.1,0,4.1,0,6.2,0c4.2,0,8.5,0,12.7-0.1c7.8-0.1,14.4-6.8,14.5-14.6c0.2-6.1,0.1-12.4,0.1-18.5C119.1,85.8,119.1,83.7,119.1,81.7z
		"/>
</g>
</svg>
