<?xml version="1.0" encoding="utf-8"?>
<!-- Generator: Adobe Illustrator 25.1.0, SVG Export Plug-In . SVG Version: 6.00 Build 0)  -->
<svg version="1.1" id="Capa_1" xmlns="http://www.w3.org/2000/svg" xmlns:xlink="http://www.w3.org/1999/xlink" x="0px" y="0px"
	 viewBox="0 0 128 128" style="enable-background:new 0 0 128 128;" xml:space="preserve">
<style type="text/css">
	.st0{fill:#FFFFFF;}
</style>
<g>
	<path class="st0" d="M6.4,67.4c0-2.4,0-4.8,0-7.2c0.3-1.9,0.4-3.9,0.8-5.8c2.1-12,7.3-22.5,15.9-31.2c8.7-8.8,19.1-14.3,31.3-16.4
		c2.1-0.4,4.2-0.6,6.4-0.9c2.4,0,4.8,0,7.3,0c2,0.3,4,0.4,5.9,0.8c10.9,1.9,20.5,6.4,28.7,13.7c10.1,9,16.5,20.1,18.9,33.5
		c0.4,2.1,0.6,4.2,0.9,6.4c0,2.4,0,4.8,0,7.2c-0.1,0.4-0.2,0.7-0.2,1.1c-0.3,2-0.4,4-0.8,6c-2.6,13.5-9.2,24.7-19.7,33.5
		c-13.1,10.9-28.2,15.3-45.1,13.1C45,119.6,34.7,114.8,26,107C16,98.1,9.7,87,7.3,73.8C6.9,71.7,6.7,69.5,6.4,67.4z M11.9,63.7
		c0,28.9,23.5,52.5,52.5,52.6c29,0.1,52.7-23.5,52.7-52.4c0-28.9-23.5-52.5-52.5-52.6C35.6,11.2,11.9,34.7,11.9,63.7z"/>
	<path class="st0" d="M64.5,39.9c8.8,0,17.7,0,26.5,0c4.7,0,7.4,2.6,7.4,7.3c0,11,0,22,0,33c0,4.7-2.7,7.4-7.4,7.4
		c-17.7,0-35.4,0-53,0c-4.7,0-7.4-2.7-7.4-7.4c0-11,0-22,0-33c0-4.7,2.6-7.3,7.4-7.3C46.8,39.9,55.6,39.9,64.5,39.9z M92.9,48.1
		c-0.5,0.4-0.8,0.6-1.1,0.8c-8.3,6.6-16.7,13.2-25,19.8c-1.8,1.5-2.8,1.5-4.6,0c-8.4-6.6-16.7-13.3-25.1-19.9
		c-0.3-0.2-0.6-0.4-1-0.8c0,0.6,0,1,0,1.4c0,10.2,0,20.4,0,30.5c0,2,0.2,2.2,2.2,2.2c17.5,0,35,0,52.5,0c2,0,2.2-0.2,2.2-2.2
		c0-10.2,0-20.4,0-30.5C92.9,49.1,92.9,48.8,92.9,48.1z M41.7,45.4c0,0.1-0.1,0.1-0.1,0.2c0.1,0.1,0.2,0.1,0.3,0.2
		c7.3,5.8,14.6,11.5,21.8,17.3c0.6,0.5,1,0.4,1.5-0.1c6.6-5.2,13.1-10.4,19.7-15.6c0.8-0.6,1.5-1.2,2.5-2
		C72,45.4,56.9,45.4,41.7,45.4z"/>
</g>
</svg>
