<?xml version="1.0" encoding="utf-8"?>
<!-- Generator: Adobe Illustrator 25.1.0, SVG Export Plug-In . SVG Version: 6.00 Build 0)  -->
<svg version="1.1" id="Capa_1" xmlns="http://www.w3.org/2000/svg" xmlns:xlink="http://www.w3.org/1999/xlink" x="0px" y="0px"
	 viewBox="0 0 128 128" style="enable-background:new 0 0 128 128;" xml:space="preserve">
<style type="text/css">
	.st0{fill:#FFFFFF;}
</style>
<g>
	<path class="st0" d="M78.8,10.4c-2.8,0.1-5.5,0.3-8.3,0.7c-1.3-0.2-2.7-0.3-4.1-0.2c-2,0.1-3.9,0.3-5.8,0.7
		c-1.9,0.4-3.8,0.8-5.7,1.3c-3.8,1-7.5,2.3-11.2,3.8c-3.5,1.5-7,3.2-10.3,5.2c-1.6,1-3.2,2.1-4.7,3.3c-1.5,1.2-3,2.5-4.4,3.9
		c-0.7,0.7-1.4,1.3-2.1,2c-2.2,1.5-4.3,3.1-6.3,4.8c-1.2,1-2.3,2-3.3,3.1c-1.1,1.1-2.1,2.2-3.1,3.3c-1,1.2-1.9,2.4-2.8,3.7
		c-0.9,1.3-1.6,2.6-2.3,4c-0.7,1.4-1.3,2.8-1.9,4.3c-0.6,1.5-1.1,3-1.6,4.4c-0.1,0.4,0.1,0.8,0.4,1c0.2,0.1,0.5,0.2,0.7,0.1
		c0.2-0.1,0.4-0.2,0.5-0.4c0.5-1.2,1-2.3,1.5-3.5c0.5-1.2,1.1-2.4,1.7-3.6c0.6-1.2,1.2-2.3,1.9-3.4c0.6-1.1,1.4-2.1,2.1-3.1
		c1.1-1.4,2.2-2.7,3.4-3.9c-1.1,1.7-2.2,3.5-3.1,5.3C8.4,51,7.1,54.6,6.4,58.4c-0.4,1.9-0.6,3.9-0.6,5.8c-0.1,2,0.1,3.9,0.4,5.8
		c0.5,3.9,1.7,7.7,3.2,11.3c1.5,3.6,3.4,7,5.5,10.3c2.1,3.3,4.4,6.4,7,9.3c5.1,5.7,11.5,10.1,18.5,13.1c7.2,3.1,15,4.8,22.9,5.3
		c4,0.2,7.9,0.1,11.9-0.3c4-0.4,7.9-1.2,11.7-2.3c3.7-1.1,7.3-2.5,10.8-4.3c3.4-1.7,6.5-3.8,9.5-6.1c6-4.7,10.8-10.9,13.9-17.8
		c3.3-7.2,4.8-15.1,5.1-22.9c0.2-4,0-8-0.5-12c-0.5-4-1.4-7.9-2.6-11.7c-0.6-1.9-1.3-3.7-2-5.5c-0.7-1.8-1.6-3.6-2.5-5.4
		c-1.9-3.3-4.3-6.3-7.1-8.9c-1.4-1.3-2.9-2.6-4.5-3.7c-1.6-1.1-3.2-2.1-4.9-3c-3.5-1.8-7.3-3.1-11.1-3.9c-3.5-0.7-7-1-10.5-1
		C79.8,10.4,79.3,10.4,78.8,10.4L78.8,10.4L78.8,10.4z M66.7,11.7c0.2,0,0.4,0,0.7,0c-0.2,0-0.4,0.1-0.7,0.1
		c-7.8,1.5-15.3,4.2-22.7,7.3c-3.6,1.5-7.2,3.2-10.6,5.1c-1.7,0.9-3.4,1.9-5,2.9c-0.4,0.3-0.8,0.5-1.3,0.8c1-0.9,1.9-1.7,2.9-2.5
		c2.2-1.7,4.4-3.2,6.8-4.5c2.4-1.3,4.8-2.5,7.3-3.5c0,0,0,0,0,0c0,0,0.1,0,0.1,0c0,0,0,0,0,0c0,0,0,0,0,0c1.5-0.6,3-1.2,4.5-1.7
		c1.6-0.5,3.2-1,4.8-1.5c3.2-0.9,6.4-1.7,9.6-2.2c0,0,0,0,0,0C64.3,11.9,65.5,11.7,66.7,11.7L66.7,11.7L66.7,11.7z M87.1,13.7
		c1.8,0.3,3.7,0.6,5.5,1.1c1.8,0.5,3.6,1.1,5.3,1.8c3,1.3,5.8,2.9,8.4,4.9c2.7,2.1,5.2,4.5,7.3,7.2c1.1,1.4,2,2.9,2.9,4.4
		c0.9,1.6,1.7,3.3,2.4,5c1.1,2.6,2,5.2,2.8,7.9c0.8,2.9,1.4,5.8,1.8,8.8c0.8,6.1,0.8,12.3,0,18.5c-0.7,4.8-1.9,9.4-3.7,13.9
		c0-0.1,0.1-0.1,0.1-0.2c-1.6,3.8-3.7,7.4-6.2,10.7c-1.2,1.5-2.5,3-3.8,4.3c-1.4,1.4-2.9,2.7-4.5,3.9c0,0,0.1-0.1,0.1-0.1
		c-1.9,1.5-3.9,2.8-6,4.1c-2.1,1.2-4.3,2.3-6.6,3.3c0,0,0.1,0,0.1-0.1c-2.5,1.1-5.2,2-7.8,2.7c-2.8,0.8-5.6,1.3-8.4,1.7
		c-3,0.4-6.1,0.6-9.2,0.6c-3.1,0-6.3-0.2-9.4-0.6c0,0,0,0,0,0c-5.8-0.8-11.5-2.2-16.8-4.5c-4.2-1.8-8.3-4.1-11.9-6.9c0,0,0,0,0,0
		c0,0,0,0,0,0c0,0-0.1-0.1-0.1-0.1c0,0,0.1,0,0.1,0.1c-1.9-1.4-3.6-3-5.3-4.7c-1.7-1.7-3.2-3.5-4.6-5.4c-1.8-2.4-3.5-4.9-5-7.5
		c-1.5-2.6-2.9-5.3-4.1-8c0,0,0,0.1,0,0.1C9,77,7.8,73.2,7.3,69.3c0,0,0,0,0,0.1c0,0,0-0.1,0-0.1c0,0,0,0,0-0.1c0,0,0,0,0,0
		c-0.2-1.5-0.3-3-0.3-4.6c0-1.5,0.1-3.1,0.3-4.6c0,0,0,0,0,0.1c0,0,0-0.1,0-0.1c0,0,0,0,0,0c0,0,0,0,0,0c0.5-3.2,1.3-6.3,2.6-9.2
		c0,0,0,0,0,0.1c0,0,0-0.1,0.1-0.1c0,0,0,0,0,0c0,0,0,0,0,0c1.8-4.2,4.3-8.2,7.1-11.8c0.2-0.3,0.5-0.6,0.7-0.9
		c0.7-0.6,1.4-1.1,2.1-1.7c1.9-1.4,3.8-2.8,5.7-4.1c2-1.4,4.1-2.8,6.3-4c4.3-2.5,8.9-4.7,13.5-6.7c-0.1,0-0.2,0.1-0.3,0.1
		c4.3-1.8,8.7-3.5,13.1-4.9c4.4-1.4,8.9-2.4,13.5-3c1.4-0.2,2.8-0.3,4.2-0.4c0.3,0.1,0.6,0.2,0.9,0.3c0,0-0.1,0-0.1,0
		c0.1,0,0.1,0.1,0.2,0.1c0.2,0.1,0.4,0,0.5-0.1c0.1-0.1,0.1-0.2,0-0.3C80.5,13.2,83.8,13.3,87.1,13.7L87.1,13.7L87.1,13.7z
		 M86.8,13.7c0.1,0,0.1,0,0.2,0C86.9,13.7,86.8,13.7,86.8,13.7L86.8,13.7L86.8,13.7z M71.8,13.8c0,0-0.1,0-0.1,0
		C71.7,13.8,71.7,13.8,71.8,13.8L71.8,13.8L71.8,13.8z M106.3,21.5c0.1,0,0.1,0.1,0.2,0.1C106.4,21.6,106.3,21.6,106.3,21.5
		L106.3,21.5L106.3,21.5z M118.7,37.9C118.7,38,118.7,38,118.7,37.9C118.7,38,118.7,38,118.7,37.9L118.7,37.9L118.7,37.9z M17,38.8
		C17,38.8,17,38.9,17,38.8C17,38.9,17,38.8,17,38.8L17,38.8L17,38.8z M10,46c0,0-0.1,0.1-0.1,0.1C9.9,46,10,46,10,46L10,46L10,46z
		 M9.9,46.1C9.8,46.2,9.8,46.2,9.9,46.1C9.8,46.2,9.8,46.2,9.9,46.1L9.9,46.1L9.9,46.1z M58.1,117.5c0,0,0.1,0,0.1,0
		C58.2,117.5,58.1,117.5,58.1,117.5L58.1,117.5L58.1,117.5z M29.5,106.1C29.5,106.1,29.5,106.1,29.5,106.1
		C29.5,106.1,29.5,106.1,29.5,106.1C29.5,106.1,29.5,106.1,29.5,106.1L29.5,106.1L29.5,106.1z M7.3,69.3C7.3,69.3,7.3,69.3,7.3,69.3
		C7.3,69.3,7.3,69.3,7.3,69.3C7.3,69.3,7.3,69.3,7.3,69.3L7.3,69.3L7.3,69.3z M7.3,60C7.3,60.1,7.3,60.1,7.3,60
		C7.3,60.1,7.3,60,7.3,60C7.3,60,7.3,60,7.3,60L7.3,60L7.3,60z M9.9,50.7C9.9,50.8,9.9,50.8,9.9,50.7C9.9,50.8,9.9,50.7,9.9,50.7
		C9.9,50.7,9.9,50.7,9.9,50.7L9.9,50.7L9.9,50.7z M44.2,17.4C44.2,17.5,44.2,17.5,44.2,17.4C44.2,17.5,44.2,17.5,44.2,17.4
		C44.2,17.4,44.2,17.4,44.2,17.4L44.2,17.4L44.2,17.4z"/>
</g>
<g>
	<path class="st0" d="M76.8,58.3c-2,0-3.8,0-5.7,0c-0.7-2.2-1.5-2.9-3.8-2.9c-1.6,0-3.2,0-4.7,0c-1.7,0-3,1.2-3,2.9
		c0,1.6,1.3,2.9,3,2.9c2.2,0,4.6,0,6.9,0.1c4.4,0.4,7.8,4.9,7.3,9.2c-0.7,4.7-4.1,7.8-8.7,7.8c-2.2,0-4.4,0.1-6.6-0.1
		c-4.4-0.5-7.5-4-7.5-8.4c1.8,0,3.7,0,5.7,0c0.7,2.2,1.5,2.8,3.8,2.8c1.6,0,3.2,0,4.7,0c1.7,0,3-1.2,3-2.9c0-1.6-1.3-2.9-3-2.9
		c-2.2,0-4.6,0-6.9-0.1c-4.4-0.4-7.8-4.9-7.3-9.2c0.5-4.4,3.4-7.3,7.8-7.6c2.5-0.3,5-0.3,7.5,0C73.6,50.3,76.6,53.9,76.8,58.3z"/>
	<path class="st0" d="M79.7,69.8c1.8,0,3.7,0,5.7,0c0,0.1,0.1,0.4,0.1,0.7c0.4,1.3,1.5,2.1,2.8,2.2c1.8,0,3.8,0,5.7,0
		c1.7,0,2.9-1.3,2.9-2.9c0-1.6-1.3-2.8-2.9-2.9c-2.2,0-4.6,0.1-6.9-0.1c-3.6-0.4-5.9-2.6-7-6.1c-1.1-3.3-0.1-6.3,2.4-8.7
		c1.5-1.5,3.3-2.2,5.4-2.2c2.5,0,5-0.1,7.4,0.1c4.1,0.4,7.3,4.2,7.3,8.4c-1.8,0-3.7,0-5.7,0c0-0.1-0.1-0.4-0.1-0.7
		c-0.4-1.3-1.5-2.1-2.8-2.2c-1.8,0-3.8,0-5.7,0c-1.7,0-2.9,1.3-2.9,2.9s1.3,2.8,2.9,2.9c2.2,0,4.6-0.1,6.9,0.1
		c3.6,0.4,5.9,2.6,7,6.1c1.1,3.3,0.1,6.3-2.4,8.7c-1.5,1.5-3.3,2.2-5.4,2.2c-2.5,0-5,0.1-7.4-0.1C83,77.8,79.7,74,79.7,69.8z"/>
	<path class="st0" d="M45.1,67c2,0,3.8,0,5.7,0c-0.1,3.3-1.2,6.1-3.6,8.3c-3.6,3.3-7.8,4.1-12.3,2.2c-4.5-1.8-6.9-5.4-7.1-10.3
		c-0.1-2.6-0.1-5.3,0.1-7.8c0.7-5.5,5.7-9.8,11.3-9.6c5.7,0,10.5,4.2,11.3,9.8c0.1,0.5,0.1,1.1,0.1,1.7c-2,0-3.8,0-5.8,0
		c-0.1-1.7-0.8-3.3-2.1-4.4c-3.3-2.8-8.6-0.9-9.2,3.3c-0.4,2.6-0.3,5.3,0,7.9c0.3,2.8,2.9,4.7,5.7,4.7s5-2,5.5-4.6
		C45.1,67.7,45.1,67.3,45.1,67z"/>
</g>
</svg>
