<?xml version="1.0" encoding="utf-8"?>
<!-- Generator: Adobe Illustrator 25.1.0, SVG Export Plug-In . SVG Version: 6.00 Build 0)  -->
<svg version="1.1" id="Capa_1" xmlns="http://www.w3.org/2000/svg" xmlns:xlink="http://www.w3.org/1999/xlink" x="0px" y="0px"
	 viewBox="0 0 128 128" style="enable-background:new 0 0 128 128;" xml:space="preserve">
<style type="text/css">
	.st0{fill:#FFFFFF;}
</style>
<g>
	<path class="st0" d="M122.9,67.2c-0.9,2.1-2.5,2.8-4.7,2.8c-18.9-0.1-37.8,0-56.7,0c-0.5,0-0.9,0-1.4,0c-0.1,0.3-0.2,0.7-0.3,1
		c-2,6.3-7.8,10.5-14.4,10.6c-6.5,0-12.3-4.2-14.4-10.4c-0.3-0.9-0.7-1.1-1.6-1.1c-6.4,0-12.7,0-19.1,0c-2.8,0-4.6-2.6-3.5-5.1
		c0.7-1.5,2-2.2,3.6-2.2c6.3,0,12.7,0,19,0c0.9,0,1.3-0.3,1.6-1.1c2-6.2,7.9-10.4,14.4-10.4c6.6,0,12.4,4.3,14.4,10.6
		c0.1,0.3,0.2,0.6,0.3,1c0.4,0,0.9,0,1.3,0c19,0,37.9,0,56.9,0c2.2,0,3.8,0.7,4.7,2.8C122.9,66,122.9,66.6,122.9,67.2z M53.2,66.3
		c0-4.3-3.5-7.9-7.8-7.9c-4.3,0-7.9,3.5-7.9,7.9c0,4.3,3.6,7.9,7.9,7.9C49.6,74.2,53.1,70.7,53.2,66.3z"/>
	<path class="st0" d="M122.9,98.6c-0.8,2.1-2.3,2.9-4.5,2.8c-6.2-0.1-12.4,0-18.5,0c-0.8,0-1.2,0.2-1.4,1c-2,6.3-7.9,10.5-14.4,10.5
		c-6.6,0-12.3-4.2-14.4-10.6c-0.3-1-0.8-1-1.6-1c-19,0-38,0-57,0c-0.6,0-1.3,0-1.9-0.1c-1.6-0.3-2.7-1.9-2.7-3.5
		c0-1.6,1.1-3.1,2.7-3.5c0.6-0.1,1.3-0.2,1.9-0.2c18.9,0,37.8,0,56.8,0c1.1,0,1.6-0.2,2-1.4c2.1-6.1,7.9-10.2,14.3-10.1
		c6.5,0,12.2,4.1,14.2,10.2c0.3,1,0.8,1.3,1.8,1.3c5.9,0,11.8,0,17.7-0.1c2.3,0,4,0.5,5,2.7C122.9,97.4,122.9,98,122.9,98.6z
		 M76.2,97.8c0,4.4,3.5,7.9,7.8,7.9c4.3,0,7.9-3.5,7.9-7.8c0-4.3-3.5-7.9-7.8-7.9C79.7,89.9,76.2,93.4,76.2,97.8z"/>
	<path class="st0" d="M122.9,35.8c-1,2.1-2.6,2.7-4.9,2.7c-6.1-0.1-12.1,0-18.2,0c-0.7,0-1.1,0.1-1.4,0.9C96.4,45.8,90.7,50,84,50
		c-6.6,0-12.3-4.2-14.3-10.6c-0.3-0.9-0.8-0.9-1.5-0.9c-19.1,0-38.2,0-57.3,0c-2.3,0-3.7-0.9-4.2-2.7c-0.6-2.1,0.8-4.3,3-4.6
		c0.5-0.1,1.1,0,1.6,0c18.8,0,37.7,0,56.5,0c1.1,0,1.7-0.2,2.1-1.4c2.1-6.2,7.9-10.2,14.4-10.1c6.4,0.1,12.1,4.2,14.2,10.4
		c0.3,0.9,0.6,1.2,1.6,1.2c6.1,0,12.2,0,18.3-0.1c2.3,0,3.8,0.7,4.6,2.8C122.9,34.6,122.9,35.2,122.9,35.8z M84,42.7
		c4.3,0,7.9-3.5,7.9-7.8c0-4.3-3.5-7.9-7.9-7.9c-4.4,0-7.9,3.5-7.9,7.8C76.2,39.2,79.7,42.7,84,42.7z"/>
</g>
</svg>
