<?xml version="1.0" encoding="utf-8"?>
<!-- Generator: Adobe Illustrator 25.1.0, SVG Export Plug-In . SVG Version: 6.00 Build 0)  -->
<svg version="1.1" id="Capa_1" xmlns="http://www.w3.org/2000/svg" xmlns:xlink="http://www.w3.org/1999/xlink" x="0px" y="0px"
	 viewBox="0 0 128 128" style="enable-background:new 0 0 128 128;" xml:space="preserve">
<style type="text/css">
	.st0{fill:#FFFFFF;}
</style>
<g>
	<path class="st0" d="M64.8,121.7c-8.4,0-16.7,0-25.1,0c-11.4,0-20.7-9.3-20.7-20.7c0-8.3,0-16.7,0-25c0-1.9,1-3.4,2.7-4
		c1.6-0.6,3.5-0.3,4.5,1.1c0.6,0.9,1.1,2.1,1.1,3.2c0.1,8.2,0,16.3,0,24.5c0,7.1,5.5,12.6,12.6,12.6c16.6,0,33.1,0,49.7,0
		c7.1,0,12.6-5.5,12.6-12.6c0-8.2,0-16.5,0-24.7c0-2.3,1.5-4.1,3.7-4.3c2-0.2,4,1.1,4.5,3.1c0.1,0.5,0.1,1.1,0.1,1.7
		c0,8.2,0,16.4,0,24.6c0,11.3-9.4,20.6-20.7,20.6C81.6,121.7,73.2,121.7,64.8,121.7z"/>
	<path class="st0" d="M64.8,14.7c-0.5,0.7-0.7,1.1-1,1.4c-16.5,16.5-33,33.1-49.6,49.6c-1.4,1.4-2.8,2.1-4.8,1.5
		c-2.8-0.9-3.8-4.4-1.9-6.7c0.3-0.3,0.6-0.6,0.9-0.9C26,42.1,43.7,24.5,61.3,6.9c2.5-2.5,4.6-2.6,7.1,0
		c17.7,17.7,35.5,35.4,53.2,53.2c2.6,2.6,1.8,6.4-1.5,7.3c-1.7,0.5-3.1-0.1-4.3-1.3c-5.2-5.2-10.4-10.4-15.5-15.6
		C88.7,39,77.2,27.5,65.7,16C65.5,15.7,65.3,15.4,64.8,14.7z"/>
</g>
</svg>
