<?xml version="1.0" encoding="utf-8"?>
<!-- Generator: Adobe Illustrator 25.1.0, SVG Export Plug-In . SVG Version: 6.00 Build 0)  -->
<svg version="1.1" id="Capa_1" xmlns="http://www.w3.org/2000/svg" xmlns:xlink="http://www.w3.org/1999/xlink" x="0px" y="0px"
	 viewBox="0 0 128 128" style="enable-background:new 0 0 128 128;" xml:space="preserve">
<style type="text/css">
	.st0{fill:#FFFFFF;}
</style>
<g>
	<path class="st0" d="M60.2,5.6c-1.9,0.2-3.9,0.5-5.8,0.9c-3.8,0.8-7.5,1.8-11.1,3.3c-3.5,1.4-6.9,3.2-10.2,5.3
		c-1.7,1.1-3.3,2.2-4.8,3.4c-1.5,1.1-3,2.3-4.5,3.6c-2.9,2.5-5.7,5.2-8.3,8.1C10.2,35.8,6,42.4,3.4,49.7C2,53.4,1.2,57.3,0.9,61.2
		c-0.3,4,0.1,8,1.1,11.8c0.9,3.8,2.3,7.4,4.2,10.8c1.8,3.4,4.1,6.5,6.6,9.4c1.8,2.1,3.8,4,5.9,5.8c1.6,2,3.4,4,5.3,5.8
		c1.4,1.4,2.9,2.7,4.4,3.9c1.5,1.3,3,2.5,4.6,3.6c3.1,2.3,6.4,4.4,9.8,6.2c3.5,1.8,7.1,3.3,10.8,4.4c1.9,0.6,3.8,1.1,5.8,1.4
		c1.9,0.4,3.9,0.6,5.9,0.8c2,0.1,3.9,0.1,5.9-0.1c1.9-0.2,3.8-0.5,5.7-1c1.9-0.5,3.7-1.1,5.5-1.9c1.8-0.8,3.5-1.6,5.2-2.6
		c3.3-1.9,6.5-4.2,9.4-6.7c1.5-1.3,2.9-2.6,4.3-3.9c1.4-1.4,2.8-2.8,4.1-4.2c0.8-0.9,1.6-1.8,2.4-2.6c0.2-0.2,0.2-0.6,0-0.8
		c-0.2-0.2-0.6-0.2-0.8,0c-2.2,2.2-4.3,4.4-6.6,6.5c-1.1,1-2.2,2-3.3,3c-1.2,1-2.3,2-3.6,2.9c0.1,0,0.1-0.1,0.2-0.1
		c-1.8,1.4-3.8,2.7-5.7,3.9c-2,1.2-4.1,2.3-6.2,3.2c0,0,0,0,0,0c-1.4,0.6-2.9,1.1-4.4,1.5c-1.6,0.4-3.2,0.7-4.8,1c0.1,0,0.1,0,0.2,0
		c-1.7,0.2-3.4,0.3-5.1,0.3c-1.8,0-3.5-0.2-5.3-0.4c-2.4-0.3-4.8-0.9-7.2-1.6c-2.4-0.7-4.7-1.5-7-2.5c-2.7-1.2-5.4-2.5-8-4.1
		c-2.6-1.6-5.2-3.4-7.6-5.3c-2.1-1.7-4.2-3.4-6.1-5.2c1.5,0.9,3,1.7,4.5,2.5c1.7,0.9,3.5,1.7,5.3,2.4c1.8,0.7,3.7,1.4,5.6,2
		c1.9,0.6,3.8,1.2,5.8,1.7c1.9,0.5,3.9,1,5.9,1.3c3.9,0.7,7.9,0.9,11.9,1c2,0,4-0.1,6-0.2c2-0.2,4-0.4,6-0.7c2-0.3,3.9-0.6,5.8-1.1
		c1.9-0.4,3.9-1,5.7-1.7c3.6-1.3,7.1-3.1,10.4-5c3.3-2,6.3-4.3,9.1-6.9c2.8-2.6,5.3-5.5,7.5-8.6c2.2-3.1,4.2-6.4,5.7-9.9
		c1.6-3.5,2.7-7.2,3.5-11c1.6-7.8,1.5-15.9-0.6-23.6c-1-3.8-2.6-7.4-4.4-10.8c-0.9-1.7-1.9-3.3-3-4.9c-1.1-1.6-2.3-3-3.6-4.4
		c-1.3-1.4-2.7-2.7-4.1-3.9c-1.5-1.2-3.1-2.4-4.7-3.5c-3.3-2.2-6.8-3.9-10.5-5.4c-5.6-2.3-11.4-3.9-17.4-4.8c0-0.2-0.2-0.3-0.4-0.4
		c0,0,0,0,0,0c0,0,0.1,0,0.1,0c-0.4-0.2-0.7-0.4-1.1-0.7c-0.4-0.2-0.7-0.5-1.1-0.7c-0.4-0.2-0.8-0.4-1.2-0.6
		c-0.4-0.2-0.9-0.4-1.4-0.5c-0.9-0.3-1.8-0.4-2.6-0.6c-1-0.1-2-0.2-3-0.2c-0.2,0-0.4,0-0.5,0C63.8,5.2,62,5.4,60.2,5.6L60.2,5.6
		L60.2,5.6z M63.8,6.3c1.7-0.1,3.4-0.1,5.1,0.1c1.2,0.2,2.5,0.4,3.6,0.9c0.7,0.3,1.4,0.7,2.1,1.1c0,0,0.1,0,0.1,0.1
		c-1.2-0.2-2.5-0.3-3.7-0.4c-4-0.3-7.9-0.4-11.9,0c-2,0.2-4,0.5-5.9,0.9c-1.9,0.4-3.8,0.9-5.7,1.5c-1.9,0.6-3.7,1.4-5.5,2.2
		c-1.8,0.8-3.5,1.7-5.2,2.7c-3.4,1.9-6.6,4.1-9.6,6.6c-3,2.4-5.6,5.2-8,8.2c-2.4,3-4.5,6.3-6.2,9.7c-1.8,3.5-3.2,7.2-4.2,11
		c-1,3.8-1.6,7.8-1.8,11.7c-0.2,4,0.1,8,0.8,11.9c0.7,3.9,1.8,7.7,3.3,11.3c1.1,2.6,2.3,5.1,3.8,7.5c-1-1.1-2-2.3-3-3.6
		c0,0,0,0,0,0.1C9.2,86.6,7.1,83,5.5,79.2c-1.4-3.4-2.4-7-2.9-10.6c-0.4-3.3-0.4-6.7,0-10c0,0.1,0,0.1,0,0.2c0.5-4,1.7-7.9,3.2-11.6
		c0,0.1,0,0.1-0.1,0.2c1.9-4.6,4.5-8.8,7.5-12.7c0,0,0,0,0,0c0,0,0,0,0,0c0,0,0,0,0,0c0,0,0,0,0,0c2.1-2.7,4.5-5.3,6.9-7.7
		c2.5-2.4,5.1-4.7,7.9-6.9c0,0-0.1,0.1-0.1,0.1c2.4-1.8,4.8-3.5,7.3-5.1c2.5-1.5,5-2.8,7.7-4C48,8.9,53.4,7.5,58.8,6.8
		c0,0-0.1,0-0.1,0C60.4,6.6,62.1,6.4,63.8,6.3L63.8,6.3L63.8,6.3z M76.4,8.4C76.4,8.4,76.4,8.4,76.4,8.4C76.4,8.4,76.4,8.4,76.4,8.4
		L76.4,8.4L76.4,8.4z M74.2,11.1c3.4,0.5,6.7,1.1,10,2c3.4,0.9,6.7,2,9.9,3.4c-0.1,0-0.2-0.1-0.3-0.1c4.8,2,9.3,4.5,13.4,7.7
		c1.4,1.1,2.7,2.3,4,3.5c1.2,1.2,2.4,2.5,3.4,3.8c1.3,1.6,2.4,3.4,3.4,5.2c1.1,1.8,2,3.8,2.9,5.7c0.8,1.9,1.5,3.8,2,5.8
		c0.6,2,1,4.1,1.3,6.2c0.6,4.4,0.5,8.8,0,13.2c0-0.1,0-0.1,0-0.2c-0.3,2.3-0.7,4.5-1.3,6.7c-0.6,2.2-1.3,4.4-2.2,6.5
		c-1.8,4.3-4.3,8.3-7.1,12c-2.8,3.6-6.1,6.9-9.7,9.7c0,0,0.1,0,0.1-0.1c-4.1,3.1-8.6,5.7-13.3,7.7c-1.2,0.5-2.4,1-3.7,1.4
		c-1.3,0.4-2.6,0.8-3.9,1.1c-2.6,0.6-5.3,1-8,1.4c0,0,0.1,0,0.1,0c-1.5,0.2-3.1,0.4-4.6,0.5c-1.6,0.1-3.2,0.1-4.8,0.1
		c-3.2,0-6.4-0.2-9.6-0.6c-1.7-0.2-3.4-0.6-5.1-0.9c-1.7-0.4-3.4-0.9-5.1-1.4c-1.7-0.5-3.4-1-5-1.6c-1.6-0.6-3.3-1.2-4.9-1.9
		c0,0,0.1,0,0.1,0.1c-5-2.1-9.7-4.8-14-8.1c0,0,0.1,0,0.1,0.1c0,0-0.1-0.1-0.1-0.1c0,0,0,0,0,0c0,0,0,0,0,0c0,0,0,0,0,0
		c-0.8-0.9-1.5-1.8-2.2-2.7c0,0,0,0,0,0c-2.7-3.6-5-7.5-6.8-11.6c-1.8-4.3-3-8.7-3.6-13.3c-0.6-4.7-0.7-9.5-0.1-14.3
		c0,0.1,0,0.1,0,0.2c0-0.1,0-0.1,0-0.2c0,0,0-0.1,0-0.1c0,0,0,0.1,0,0.1c0.6-4.7,1.9-9.2,3.7-13.6c1-2.2,2-4.4,3.3-6.4
		c1.2-2.1,2.6-4.1,4.1-6c1.4-1.8,2.8-3.4,4.4-5c1.6-1.6,3.2-3,5-4.4c2.2-1.7,4.5-3.2,7-4.6c2.4-1.4,4.9-2.7,7.5-3.8
		c2-0.8,4.1-1.6,6.2-2.1c2.1-0.6,4.3-1,6.4-1.3C62.6,10.2,68.4,10.3,74.2,11.1L74.2,11.1L74.2,11.1z M44.4,14.2c0,0-0.1,0-0.1,0.1
		C44.3,14.3,44.4,14.2,44.4,14.2L44.4,14.2L44.4,14.2z M20.4,32.1c0,0.1-0.1,0.1-0.1,0.2C20.3,32.2,20.3,32.2,20.4,32.1L20.4,32.1
		L20.4,32.1z M12.9,44.7C12.9,44.7,12.9,44.8,12.9,44.7C12.9,44.8,12.9,44.7,12.9,44.7L12.9,44.7L12.9,44.7z M9.3,72.3
		C9.3,72.3,9.3,72.4,9.3,72.3C9.3,72.4,9.3,72.3,9.3,72.3L9.3,72.3L9.3,72.3z M5.5,79.2c0,0,0,0.1,0.1,0.1
		C5.5,79.3,5.5,79.3,5.5,79.2L5.5,79.2L5.5,79.2z M32.6,109.9C32.7,110,32.7,110,32.6,109.9C32.7,110,32.7,110,32.6,109.9
		L32.6,109.9L32.6,109.9z M48.2,119.3C48.2,119.3,48.3,119.3,48.2,119.3C48.3,119.3,48.2,119.3,48.2,119.3L48.2,119.3L48.2,119.3z
		 M103.9,102.2C103.9,102.2,103.9,102.2,103.9,102.2C103.9,102.2,103.9,102.2,103.9,102.2L103.9,102.2L103.9,102.2z M22,100
		C22,100,22,100.1,22,100C22,100.1,22,100,22,100C22,100,22,100,22,100L22,100L22,100z M9.2,58.2C9.2,58.2,9.2,58.2,9.2,58.2
		C9.2,58.2,9.3,58.2,9.2,58.2C9.3,58.2,9.3,58.2,9.2,58.2L9.2,58.2L9.2,58.2z M13.2,34.6C13.2,34.6,13.2,34.6,13.2,34.6
		C13.2,34.6,13.2,34.6,13.2,34.6C13.2,34.6,13.2,34.6,13.2,34.6L13.2,34.6L13.2,34.6z"/>
</g>
<g>
	<path class="st0" d="M89.6,78.6c-1.9,0-3.7,0-5.6,0c0-6.2,0-12.4,0-18.7c-0.1-0.1-0.2-0.1-0.2-0.2c-1,1.1-2,2.1-3.1,3.2
		c-1.7,1.7-3.2,1.7-4.9,0c-1-1-2-2-3.2-3.3c0,6.4,0,12.6,0,18.8c-2,0-3.8,0-5.7,0c0-0.2-0.1-0.5-0.1-0.6c0-8.3,0-16.5,0-24.7
		c0-0.7,0.3-1.7,0.7-2.2c1-1.3,2.9-1.3,4.3,0c2,1.9,3.9,3.9,5.7,5.7c0.2,0.2,0.4,0.4,0.7,0.6c1.6-1.6,3.1-3.1,4.6-4.6
		c0.6-0.6,1.3-1.3,2-2c0.9-0.9,2-1.1,3.1-0.6c1.2,0.5,1.7,1.4,1.7,2.7c0,8.5,0,16.9,0,25.4C89.7,78.4,89.6,78.4,89.6,78.6z"/>
	<path class="st0" d="M26.7,50c1.9,0,3.8,0,5.7,0c0,3.8,0,7.6,0,11.3c1.9,0,3.8,0,5.7,0c0-3.8,0-7.6,0-11.3c2,0,3.8,0,5.7,0
		c0,9.5,0,19,0,28.6c-1.9,0-3.7,0-5.7,0c0-3.8,0-7.6,0-11.3c-1.9,0-3.8,0-5.7,0c0,3.8,0,7.6,0,11.3c-2,0-3.8,0-5.7,0
		C26.7,69.1,26.7,59.6,26.7,50z"/>
	<path class="st0" d="M63.9,50c0,1.9,0,3.8,0,5.7c-1.9,0-3.7,0-5.7,0c0,7.6,0,15.2,0,22.9c-2,0-3.8,0-5.7,0c0-7.6,0-15.2,0-22.8
		c-1.9,0-3.8,0-5.7,0c0-1.9,0-3.8,0-5.7C52.4,50,58.1,50,63.9,50z"/>
	<path class="st0" d="M106.8,72.9c0,2,0,3.9,0,5.7c-1.4,0-2.8,0-4.3,0c-2.4,0-4.7,0-7.1,0c-1.8,0-3-1.2-3-3c0-8.3,0-16.8,0-25.1
		c0-0.2,0-0.3,0-0.5c1.9,0,3.7,0,5.7,0c0,7.6,0,15.1,0,22.8C101.1,72.9,103.9,72.9,106.8,72.9z"/>
</g>
</svg>
