<?xml version="1.0" encoding="utf-8"?>
<!-- Generator: Adobe Illustrator 25.1.0, SVG Export Plug-In . SVG Version: 6.00 Build 0)  -->
<svg version="1.1" id="Capa_1" xmlns="http://www.w3.org/2000/svg" xmlns:xlink="http://www.w3.org/1999/xlink" x="0px" y="0px"
	 viewBox="0 0 500 500" style="enable-background:new 0 0 500 500;" xml:space="preserve">
<g>
	<path d="M137,112.5c0,66.9,0,133.8,0,200.6c-8.2,0-16.3,0-24.5,0c-10.4,0-28.4-1.6-44.7-13.3c-30.8-22.2-31.4-63.3-31.6-84
		c-0.3-19.5-0.9-65.3,32.6-89.4c15.9-11.4,33.2-13.5,43.4-13.8C120.4,112.5,128.7,112.5,137,112.5z"/>
	<path d="M148.5,112.7c0,31.4,0,62.8,0,94.1c32.5,0,65,0,97.5,0c0-7.3,0-14.5,0-21.8c0.1-6.2-0.2-37.4-22.6-56.1
		c-15.6-13-35.8-16.3-50-16.3C165,112.7,156.7,112.7,148.5,112.7z"/>
	<path d="M148.1,217.6c0,37.7,0,75.4,0,113c0.7,4.7,5.5,32.3,30.2,47.5c11.2,6.9,22.3,8.6,29,9.1c12.9,0,25.8,0.1,38.7,0.1
		c0-56.6,0-113.1-0.1-169.7C213.3,217.6,180.7,217.6,148.1,217.6z"/>
	<path d="M258.5,113c32.7,19,65.4,37.9,98.1,56.9c0,47.9,0,95.8,0,143.7c-32.7,0-65.4,0-98.1,0C258.5,246.8,258.5,179.9,258.5,113z"
		/>
	<path d="M465.2,113c-32.7,19-65.4,37.9-98.1,56.9c0,47.9,0,95.8,0,143.7c32.7,0,65.4,0,98.1,0C465.2,246.8,465.2,179.9,465.2,113z"
		/>
</g>
</svg>
