<?xml version="1.0" encoding="utf-8"?>
<!-- Generator: Adobe Illustrator 25.1.0, SVG Export Plug-In . SVG Version: 6.00 Build 0)  -->
<svg version="1.1" id="Capa_1" xmlns="http://www.w3.org/2000/svg" xmlns:xlink="http://www.w3.org/1999/xlink" x="0px" y="0px"
	 viewBox="0 0 128 128" style="enable-background:new 0 0 128 128;" xml:space="preserve">
<style type="text/css">
	.st0{fill:#FFFFFF;}
</style>
<g>
	<path class="st0" d="M123.1,24.4c-0.7,1.2-1.7,1.6-3.1,1.6c-5-0.1-10,0-15,0c-2,0-2.8-0.8-2.8-2.8c0-5,0-10,0-15
		c0-1.4,0.4-2.4,1.6-3.1c6.5,0,12.9,0,19.4,0C123.1,11.5,123.1,17.9,123.1,24.4z M106.7,21.3c4,0,7.9,0,11.7,0c0-4,0-7.8,0-11.7
		c-3.9,0-7.8,0-11.7,0C106.7,13.6,106.7,17.4,106.7,21.3z"/>
	<path class="st0" d="M25.8,5c1.2,0.7,1.6,1.7,1.6,3.1c-0.1,5,0,10,0,15c0,2-0.8,2.8-2.8,2.9c-5.1,0-10.2,0-15.3,0
		c-2,0-2.8-0.8-2.8-2.9c0-5,0-10,0-15C6.4,6.7,6.8,5.7,8,5C14,5,19.9,5,25.8,5z M11.1,9.6c0,4,0,7.9,0,11.7c4,0,7.8,0,11.7,0
		c0-3.9,0-7.8,0-11.7C18.9,9.6,15,9.6,11.1,9.6z"/>
	<path class="st0" d="M123.1,120c-0.7,1.2-1.7,1.6-3.1,1.6c-5-0.1-10,0-15,0c-2,0-2.8-0.8-2.8-2.8c0-5.1,0-10.2,0-15.4
		c0-2,0.8-2.8,2.9-2.8c5,0,10,0,15,0c1.4,0,2.4,0.4,3.1,1.6C123.1,108.2,123.1,114.1,123.1,120z M106.7,117c4,0,7.9,0,11.7,0
		c0-4,0-7.8,0-11.7c-3.9,0-7.8,0-11.7,0C106.7,109.2,106.7,113.1,106.7,117z"/>
	<path class="st0" d="M62.7,80.2c-2.4,2.4-4.8,4.5-6.8,6.9c-3.3,3.9-7.3,6.4-12.3,7.7c-3.7,1-7.2,2.5-10.8,3.8c-1,0.4-2,0.5-2.9-0.4
		c-0.9-0.9-0.8-1.9-0.4-2.9c2-5.5,3.9-11.1,5.9-16.6c0.3-0.8,0.8-1.5,1.3-2.1c3.6-3.7,7.3-7.3,11-11c-0.3-0.3-0.6-0.6-0.9-0.9
		C40,57.8,33.2,51,26.3,44.1c-1.8-1.8-1.8-2.7,0-4.6c4.9-4.9,9.8-9.8,14.7-14.7c1.6-1.6,2.7-1.6,4.3,0c6.8,6.8,13.6,13.6,20.4,20.5
		c0.3,0.3,0.6,0.7,0.9,1.1c0.4-0.4,0.7-0.6,0.9-0.9c4.8-4.8,9.6-9.6,14.4-14.4c3.3-3.3,7.7-4.2,11.7-2.5c6.6,2.8,8.5,11.2,3.8,16.5
		c-0.4,0.4-0.8,0.8-1.2,1.2c-9.9,9.9-19.8,19.8-29.7,29.7c-0.3,0.3-0.7,0.5-1.1,0.8c1.7,1.7,3.1,3.1,4.7,4.7
		c1.6-1.6,3.2-3.3,4.9-4.9c0.3-0.4,0.7-0.7,1.1-1c1-0.9,2.3-0.9,3.2-0.1c0.9,0.9,1,2.2,0,3.3c-1.7,1.7-3.4,3.4-5.1,5.1
		c-0.3,0.3-0.6,0.5-0.9,0.8c1.3,1.3,2.4,2.4,3.7,3.6c0.5-0.5,1.1-1.2,1.7-1.8c1.1-1,2.4-1.1,3.3-0.1c0.9,0.9,0.9,2.2-0.1,3.3
		c-0.6,0.6-1.3,1.2-1.8,1.7c2.1,2.1,4,4,5.9,5.9c4.1-4.1,8.3-8.3,12.8-12.8c-0.2-0.1-0.7-0.3-0.9-0.6c-2.7-2.6-5.3-5.3-8-8
		c-1.2-1.2-1.3-2.5-0.3-3.5c1-1,2.3-0.9,3.6,0.3c3.4,3.3,6.7,6.7,10.1,10.1c1.4,1.4,1.4,2.6,0,4c-5,5.1-10.1,10.1-15.1,15.1
		c-1.5,1.5-2.6,1.5-4.1,0c-6.9-6.9-13.8-13.8-20.7-20.7C63.2,81,63,80.6,62.7,80.2z M86.8,49.5c-2.7-2.7-5.5-5.5-8.1-8.1
		c-12.5,12.5-25,24.9-37.3,37.3c2.7,2.7,5.4,5.4,8.1,8.1C61.8,74.4,74.3,62,86.8,49.5z M50.9,62c4.2-4.2,8.4-8.4,12.5-12.5
		c-6.7-6.7-13.5-13.5-20.2-20.2c-4.1,4.1-8.3,8.3-12.4,12.4c1.9,1.9,3.9,3.9,6,6c0.4-0.5,0.9-1.1,1.5-1.6c1.2-1.1,2.4-1.2,3.4-0.3
		c1,1,0.9,2.3-0.3,3.5c-0.6,0.6-1.3,1-1.8,1.4c1.5,1.5,2.6,2.6,3.7,3.8c0.2-0.2,0.5-0.5,0.8-0.7c1.7-1.7,3.3-3.3,5-5
		c0.7-0.7,1.4-1,2.4-0.8c1.8,0.5,2.3,2.5,0.9,4c-1.9,2-3.9,3.9-5.8,5.8C48.1,59.2,49.5,60.7,50.9,62z M90.2,46.2
		c1.4-1.4,2.8-2.6,4.1-4c2-2.2,2-5.5,0.1-7.7c-2-2.3-5.3-2.9-7.7-1.1c-1.8,1.3-3.2,3-4.8,4.5C84.7,40.7,87.4,43.4,90.2,46.2z
		 M35.2,92.9c3.5-1.2,6.6-2.3,9.7-3.4c-2.1-2.1-4.2-4.2-6.3-6.3C37.5,86.3,36.4,89.4,35.2,92.9z"/>
	<path class="st0" d="M17,100.7c2.5,0,5.1,0,7.6,0c2,0,2.8,0.8,2.8,2.7c0,5.2,0,10.3,0,15.5c0,1.9-0.8,2.7-2.8,2.7
		c-5.1,0-10.2,0-15.4,0c-2,0-2.8-0.8-2.8-2.9c0-5.1,0-10.2,0-15.2c0-2.1,0.8-2.9,2.9-2.9C11.9,100.7,14.4,100.7,17,100.7z M11.1,117
		c4,0,7.9,0,11.7,0c0-4,0-7.8,0-11.7c-3.9,0-7.8,0-11.7,0C11.1,109.2,11.1,113.1,11.1,117z"/>
	<path class="st0" d="M49.8,18.7c-0.8,0-1.5,0-2.3,0c-1.3-0.1-2.2-1-2.2-2.3c0-1.3,0.9-2.2,2.2-2.3c1.6-0.1,3.1-0.1,4.7,0
		c1.3,0,2.2,1.1,2.2,2.3c0,1.2-1,2.2-2.3,2.3C51.4,18.7,50.6,18.7,49.8,18.7z"/>
	<path class="st0" d="M114.9,49.4c0,0.8,0,1.5,0,2.3c-0.1,1.3-1,2.3-2.2,2.3c-1.2,0-2.3-1-2.3-2.3c0-1.5,0-3,0-4.6
		c0-1.3,1-2.2,2.2-2.2c1.3,0,2.2,0.9,2.3,2.2C114.9,47.8,114.9,48.6,114.9,49.4z"/>
	<path class="st0" d="M79.6,18.7c-0.8,0-1.5,0-2.3,0c-1.3-0.1-2.2-1-2.3-2.3c0-1.2,0.9-2.2,2.2-2.3c1.6-0.1,3.1-0.1,4.7,0
		c1.3,0,2.2,1,2.2,2.2c0,1.3-0.9,2.2-2.3,2.3C81.1,18.7,80.3,18.7,79.6,18.7z"/>
	<path class="st0" d="M114.9,79.1c0,0.8,0,1.5,0,2.3c-0.1,1.4-1,2.3-2.4,2.2c-1.2,0-2.1-1-2.2-2.3c0-1.5,0-3,0-4.6
		c0-1.3,1-2.3,2.2-2.3c1.2,0,2.2,0.9,2.3,2.2C114.9,77.5,114.9,78.3,114.9,79.1z"/>
	<path class="st0" d="M19.2,79.2c0,0.8,0,1.5,0,2.3c-0.1,1.3-1,2.2-2.3,2.2c-1.3,0-2.2-0.9-2.3-2.2c0-1.6,0-3.1,0-4.7
		c0-1.3,1.1-2.2,2.3-2.2c1.2,0,2.2,0.9,2.3,2.2C19.2,77.6,19.2,78.4,19.2,79.2z"/>
	<path class="st0" d="M14.7,49.3c0-0.8,0-1.5,0-2.3c0.1-1.3,1-2.2,2.3-2.2c1.3,0,2.2,0.9,2.3,2.2c0.1,1.6,0.1,3.1,0,4.7
		c0,1.3-1,2.2-2.3,2.2c-1.2,0-2.2-1-2.3-2.2C14.6,50.9,14.7,50.1,14.7,49.3z"/>
	<path class="st0" d="M49.9,109.8c0.8,0,1.5,0,2.3,0c1.3,0.1,2.3,1,2.3,2.3c0,1.2-0.9,2.2-2.2,2.3c-1.6,0.1-3.1,0-4.7,0
		c-1.3,0-2.2-1-2.2-2.2c0-1.3,0.9-2.2,2.2-2.3C48.3,109.8,49.1,109.8,49.9,109.8z"/>
	<path class="st0" d="M79.6,114.3c-0.8,0-1.5,0-2.3,0c-1.3-0.1-2.2-1-2.3-2.3c0-1.2,0.9-2.2,2.2-2.3c1.6-0.1,3.1,0,4.7,0
		c1.3,0,2.2,1,2.2,2.2c0,1.3-0.9,2.2-2.2,2.3C81.2,114.4,80.4,114.3,79.6,114.3z"/>
	<path class="st0" d="M64.8,18.7c-0.8,0-1.6,0-2.4,0c-1.3-0.1-2.2-1.1-2.2-2.3c0-1.2,0.9-2.2,2.1-2.2c1.6-0.1,3.3-0.1,4.9,0
		c1.2,0,2.1,1,2.1,2.2c0,1.2-0.9,2.2-2.2,2.3C66.3,18.7,65.5,18.7,64.8,18.7z"/>
	<path class="st0" d="M14.7,64.2c0-0.8,0-1.5,0-2.3c0.1-1.3,1-2.2,2.2-2.2c1.2,0,2.2,0.9,2.3,2.2c0.1,1.6,0.1,3.2,0,4.8
		c0,1.3-1,2.2-2.3,2.2c-1.2,0-2.2-0.9-2.2-2.2C14.6,65.8,14.7,65,14.7,64.2z"/>
	<path class="st0" d="M64.7,114.3c-0.8,0-1.5,0-2.3,0c-1.3-0.1-2.2-1-2.2-2.3c0-1.2,0.9-2.2,2.2-2.3c1.6,0,3.2-0.1,4.8,0
		c1.2,0,2.1,1,2.1,2.2c0,1.2-0.9,2.2-2.2,2.3C66.3,114.4,65.5,114.3,64.7,114.3z"/>
	<path class="st0" d="M114.9,64.3c0,0.8,0,1.6,0,2.4c-0.1,1.3-1.1,2.2-2.3,2.2c-1.2,0-2.2-0.9-2.2-2.2c-0.1-1.6-0.1-3.3,0-4.9
		c0-1.2,1.1-2.1,2.2-2.1c1.2,0,2.2,0.9,2.3,2.1C114.9,62.6,114.9,63.4,114.9,64.3z"/>
	<path class="st0" d="M19.2,35.9c0,0.4,0,0.8,0,1.1c-0.1,1.2-1.1,2.1-2.3,2.1c-1.2,0-2.1-0.9-2.2-2.2c-0.1-0.7,0-1.4,0-2.2
		c0.1-1.3,1-2.2,2.2-2.2c1.3,0,2.2,0.9,2.3,2.2C19.2,35.1,19.2,35.5,19.2,35.9C19.2,35.9,19.2,35.9,19.2,35.9z"/>
	<path class="st0" d="M93.1,18.7c-0.4,0-0.8,0-1.1,0c-1.2-0.1-2.1-1.1-2.1-2.3c0-1.2,0.9-2.2,2.1-2.2c0.7-0.1,1.4,0,2.2,0
		c1.4,0.1,2.3,1,2.3,2.3c0,1.3-0.9,2.1-2.3,2.2C93.8,18.7,93.5,18.7,93.1,18.7C93.1,18.7,93.1,18.7,93.1,18.7z"/>
	<path class="st0" d="M36.3,18.7c-0.4,0-0.8,0-1.1,0c-1.2-0.1-2-1-2.1-2.2c0-1.2,0.8-2.2,2-2.3c0.7-0.1,1.4,0,2.2,0
		c1.4,0,2.4,1,2.4,2.3c0,1.3-1,2.2-2.3,2.3C36.9,18.7,36.6,18.7,36.3,18.7C36.3,18.7,36.3,18.7,36.3,18.7z"/>
	<path class="st0" d="M36.4,109.8c0.4,0,0.8,0,1.3,0c1.2,0.1,2,1.1,2,2.3c0,1.1-0.9,2.1-2,2.2c-0.8,0.1-1.5,0.1-2.3,0
		c-1.3-0.1-2.2-1-2.3-2.2c0-1.3,0.9-2.2,2.3-2.3C35.7,109.8,36,109.8,36.4,109.8C36.4,109.8,36.4,109.8,36.4,109.8z"/>
	<path class="st0" d="M14.7,92.6c0-0.3,0-0.6,0-0.9c0.1-1.4,1-2.4,2.3-2.3c1.3,0,2.2,1,2.3,2.4c0,0.6,0,1.2,0,1.8
		c-0.1,1.4-0.9,2.3-2.2,2.4c-1.4,0-2.3-0.9-2.3-2.4C14.6,93.2,14.7,92.9,14.7,92.6z"/>
	<path class="st0" d="M114.8,92.6c0,0.5,0.1,0.9,0,1.4c-0.2,1.2-1.1,2-2.3,1.9c-1.2,0-2.1-0.9-2.2-2c-0.1-0.8,0-1.5,0-2.3
		c0.1-1.3,1-2.2,2.3-2.2c1.2,0,2.2,0.9,2.3,2.2C114.9,92,114.9,92.3,114.8,92.6C114.9,92.6,114.8,92.6,114.8,92.6z"/>
	<path class="st0" d="M93.2,114.3c-0.4,0-0.8,0-1.3,0c-1.2-0.1-2.1-1.1-2.1-2.3c0-1.1,0.9-2.1,2.1-2.2c0.8-0.1,1.5-0.1,2.3,0
		c1.3,0.1,2.2,1,2.2,2.3c0,1.3-0.9,2.2-2.2,2.3C93.9,114.4,93.6,114.3,93.2,114.3C93.2,114.3,93.2,114.3,93.2,114.3z"/>
	<path class="st0" d="M110.3,35.8c0-0.3,0-0.7,0-1c0.1-1.3,1-2.2,2.3-2.2c1.3,0,2.2,0.9,2.3,2.2c0,0.7,0,1.4,0,2
		c-0.1,1.4-1.1,2.3-2.3,2.3c-1.2,0-2.1-1-2.2-2.3C110.3,36.5,110.3,36.1,110.3,35.8z"/>
	<path class="st0" d="M85,65.4c1.2,0,2.3,1,2.3,2.2c0,1.2-1,2.3-2.2,2.3c-1.3,0-2.3-1-2.3-2.3C82.8,66.3,83.7,65.3,85,65.4z"/>
</g>
</svg>
