<?xml version="1.0" encoding="utf-8"?>
<!-- Generator: Adobe Illustrator 25.1.0, SVG Export Plug-In . SVG Version: 6.00 Build 0)  -->
<svg version="1.1" id="Capa_1" xmlns="http://www.w3.org/2000/svg" xmlns:xlink="http://www.w3.org/1999/xlink" x="0px" y="0px"
	 viewBox="0 0 128 128" style="enable-background:new 0 0 128 128;" xml:space="preserve">
<style type="text/css">
	.st0{fill:#FFFFFF;}
</style>
<g>
	<path class="st0" d="M65,5c32,0,58.2,26.3,58.1,58.5c0,32.2-26.3,58.3-58.7,58.2c-31.9-0.1-58.1-26.4-58-58.4C6.5,31,32.6,5,65,5z
		 M15.4,63.4c0,27,22.1,49.3,49.1,49.3c27.4,0,49.6-22,49.7-49.2c0.1-27.3-22-49.5-49.3-49.5C37.6,13.9,15.4,36,15.4,63.4z"/>
	<path class="st0" d="M69.3,70.2c0,5.8,0,11.7,0,17.5c0,2.1-1.2,3.7-3.1,4.4c-1.8,0.6-3.9,0-4.9-1.7c-0.5-0.7-0.8-1.7-0.9-2.6
		c-0.1-11.8-0.1-23.6,0-35.5c0-2.6,1.9-4.5,4.4-4.5c2.5,0,4.5,1.9,4.5,4.5C69.3,58.3,69.3,64.3,69.3,70.2z"/>
	<path class="st0" d="M60.3,38.9c0-2.5,1.9-4.4,4.4-4.4c2.5,0,4.5,1.9,4.5,4.4c0,2.5-2.1,4.6-4.5,4.6C62.3,43.3,60.3,41.3,60.3,38.9
		z"/>
</g>
</svg>
